<?xml version="1.0" encoding="UTF-8"?>
<svg version="1.1" xmlns="http://www.w3.org/2000/svg" width="1024" height="1024">
<path d="M0 0 C337.92 0 675.84 0 1024 0 C1024 337.92 1024 675.84 1024 1024 C686.08 1024 348.16 1024 0 1024 C0 686.08 0 348.16 0 0 Z " fill="#070708" transform="translate(0,0)"/>
<path d="M0 0 C3.94320288 1.57728115 7.39849312 3.22998528 11.09375 5.2734375 C11.67389359 5.59343216 12.25403717 5.91342682 12.85176086 6.24311829 C14.73626857 7.28393118 16.61824645 8.32921705 18.5 9.375 C19.80424789 10.09747116 21.10852876 10.81988279 22.4128418 11.54223633 C30.23691401 15.88122999 38.04044589 20.2558907 45.8125 24.6875 C47.04419922 25.38915283 47.04419922 25.38915283 48.30078125 26.10498047 C50.54250735 27.39070379 52.77979383 28.67736767 55 30 C55.64290057 30.28902103 56.28580113 30.57804205 56.94818354 30.87582129 C62.54436045 33.69851516 62.54436045 33.69851516 63.73806572 37.10820448 C64.0123393 39.81066011 64.02781883 42.41433475 63.96203613 45.13020325 C63.96887153 46.15944701 63.97570693 47.18869078 63.98274946 48.24912375 C63.99594398 51.70342463 63.95190568 55.1546275 63.90820312 58.60864258 C63.90594691 61.0822543 63.90721246 63.55587138 63.91174316 66.02947998 C63.91356581 71.35766869 63.8908566 76.68489022 63.84584045 82.01282692 C63.78079871 89.71593316 63.7599866 97.41866055 63.74993652 105.12201162 C63.73243119 117.62021162 63.67920243 130.1179937 63.60351562 142.6159668 C63.53007345 154.75591949 63.47345119 166.89575865 63.43945312 179.03588867 C63.43630044 180.15852208 63.43630044 180.15852208 63.43308407 181.30383495 C63.4226437 185.05848295 63.41253406 188.81313175 63.40258884 192.56778109 C63.31966664 223.71215795 63.17817719 254.85601549 63 286 C61.9988063 286.54210869 61.9988063 286.54210869 60.97738647 287.09516907 C57.88850988 288.76776185 54.79972332 290.44052085 51.7109375 292.11328125 C50.13687134 292.96557312 50.13687134 292.96557312 48.53100586 293.83508301 C34.42347385 301.47553113 20.32183021 309.12594709 6.30786133 316.93701172 C1.62638357 319.54515416 -3.06277849 322.13900298 -7.7578125 324.72265625 C-19.14174316 330.98850089 -30.51584811 337.2649931 -41.8125 343.6875 C-50.4816933 348.61525995 -59.22400287 353.39241032 -68.00537109 358.11694336 C-75.03341356 361.90792051 -81.99759199 365.80024775 -88.9375 369.75 C-96.18109009 373.87167901 -103.46280371 377.88610405 -110.84570312 381.75219727 C-116.08030157 384.49783266 -121.26815867 387.32093334 -126.4375 390.1875 C-127.57445312 390.81483032 -127.57445312 390.81483032 -128.734375 391.45483398 C-133.62218339 394.17130258 -138.3557774 397.04953627 -142.95703125 400.234375 C-145 401 -145 401 -147.37109375 400.36328125 C-150.38427143 398.800727 -153.32623334 397.16223427 -156.25 395.4375 C-157.30703125 394.81746094 -158.3640625 394.19742187 -159.453125 393.55859375 C-162 392 -162 392 -163 391 C-163.09443335 388.69946165 -163.11742128 386.39597827 -163.11352539 384.09350586 C-163.11367142 383.37159561 -163.11381744 382.64968536 -163.1139679 381.90589905 C-163.11326869 379.50885053 -163.10547595 377.11187877 -163.09765625 374.71484375 C-163.0957921 373.05717511 -163.09436818 371.39950593 -163.09336853 369.74183655 C-163.08954312 365.37045786 -163.07971265 360.99911219 -163.06866455 356.62774658 C-163.05845092 352.17045539 -163.05387101 347.71315889 -163.04882812 343.25585938 C-163.0380904 334.50389107 -163.02101371 325.75194964 -163 317 C-162.25376877 316.58553619 -161.50753754 316.17107239 -160.73869324 315.74404907 C-157.27756927 313.82164201 -153.8164977 311.89914064 -150.35546875 309.9765625 C-149.73383535 309.63125111 -149.11220196 309.28593971 -148.47173119 308.93016434 C-141.74608497 305.19400102 -135.02084804 301.45713061 -128.30078125 297.7109375 C-116.6269922 291.20581018 -104.91914492 284.77194677 -93.15698242 278.42797852 C-86.83681128 275.01303447 -80.57769032 271.51638223 -74.35546875 267.92578125 C-64.9618888 262.5345881 -55.44982233 257.34908146 -45.96484375 252.12109375 C-43.43488169 250.72658815 -40.90492645 249.3320702 -38.375 247.9375 C-37.74510162 247.59029907 -37.11520325 247.24309814 -36.46621704 246.88537598 C-24.59552975 240.34096292 -12.76939648 233.72536942 -1 227 C-0.67 152.09 -0.34 77.18 0 0 Z " fill="#1FC0F8" transform="translate(650,239)"/>
<path d="M0 0 C6.62685452 5.44569799 12.62084094 11.49328384 18.6640625 17.56640625 C19.78529198 18.68950527 20.90674575 19.8123804 22.02841187 20.93504333 C24.96479095 23.87521709 27.89815658 26.81837908 30.83087158 29.76220703 C33.80991332 32.75148463 36.7917879 35.73793338 39.7734375 38.72460938 C45.02110297 43.98181072 50.26629604 49.24146755 55.50967407 54.50294495 C56.33148163 55.32697311 57.15328918 56.15100128 58 57 C58.87941254 57.89005234 59.75882507 58.78010468 60.66488647 59.6971283 C62.95309466 62.03321429 62.95309466 62.03321429 65.5 64 C68.21236751 66.16989401 70.55367002 68.53273139 73 71 C74.03632441 72.01579002 75.07413522 73.0300654 76.11328125 74.04296875 C77.17973223 75.09110033 78.24613804 76.13927786 79.3125 77.1875 C79.86228516 77.72052734 80.41207031 78.25355469 80.97851562 78.80273438 C82.35715678 80.16424956 83.68339727 81.57840502 85 83 C85 83.66 85 84.32 85 85 C85.59342508 85.27005104 86.18685017 85.54010208 86.79825783 85.81833649 C88.98807066 86.99359759 90.45507983 88.1797995 92.22787476 89.90661621 C92.84208282 90.50073303 93.45629089 91.09484985 94.08911133 91.70697021 C94.75112549 92.35732239 95.41313965 93.00767456 96.09521484 93.67773438 C96.80126862 94.36422058 97.50732239 95.05070679 98.23477173 95.75799561 C100.56663228 98.03006973 102.88996675 100.31055474 105.2109375 102.59375 C106.00410999 103.37377884 106.79728249 104.15380768 107.61449051 104.95747375 C111.8078095 109.08567047 115.99300513 113.22193988 120.17333984 117.36328125 C123.6358927 120.79015449 127.11465678 124.19918742 130.60888672 127.59375 C134.82873951 131.69338215 139.01853691 135.82155508 143.18840408 139.97200012 C144.78188442 141.54834387 146.38562776 143.11438261 147.99961472 144.66972351 C150.25583884 146.84827904 152.47139124 149.06157454 154.68115234 151.28710938 C155.35531189 151.9212677 156.02947144 152.55542603 156.72406006 153.20880127 C161.0171353 157.64121741 161.0171353 157.64121741 160.96742058 161.58345985 C160.47111965 164.13808641 159.81143986 166.52949987 159 169 C158.73106934 170.12970215 158.46213867 171.2594043 158.18505859 172.42333984 C156.67063667 175.71613114 155.22402451 176.5502964 152.0390625 178.2265625 C151.01901123 178.77828125 149.99895996 179.33 148.94799805 179.8984375 C147.85140869 180.46820313 146.75481934 181.03796875 145.625 181.625 C143.35110782 182.84308035 141.0789957 184.06448897 138.80859375 185.2890625 C137.6676123 185.90168945 136.52663086 186.51431641 135.35107422 187.14550781 C129.48648799 190.39098333 123.81485825 193.96718649 118.19580078 197.61962891 C117.43380371 198.09577637 116.67180664 198.57192383 115.88671875 199.0625 C115.22889404 199.48660156 114.57106934 199.91070312 113.89331055 200.34765625 C112 201 112 201 109.86621094 200.21801758 C107.82218255 198.88394411 106.25247217 197.44772506 104.5625 195.6875 C104.00691406 195.11386719 103.45132813 194.54023438 102.87890625 193.94921875 C102.25886719 193.30597656 101.63882813 192.66273438 101 192 C96.06678807 187.05107517 91.11034327 182.12529526 86.16088867 177.19262695 C76.13041824 167.19517311 66.10533998 157.19232627 56.08304882 147.18667316 C50.01712948 141.1310956 43.94932575 135.07742813 37.87719727 129.02807617 C32.57072644 123.74149923 27.26774543 118.45145108 21.9689768 113.15715379 C19.16586818 110.3566566 16.36101415 107.55795842 13.5519619 104.76342201 C10.91535703 102.14033655 8.28342251 99.51265668 5.65507889 96.88129425 C4.22476001 95.45179216 2.78945982 94.02727973 1.35404968 92.60289001 C0.51144592 91.75753693 -0.33115784 90.91218384 -1.19929504 90.04121399 C-1.93760968 89.30474294 -2.67592432 88.56827188 -3.43661213 87.80948353 C-5 86 -5 86 -5 84 C-5.66 84 -6.32 84 -7 84 C-7 165.51 -7 247.02 -7 331 C-10.34007818 329.66396873 -13.07764902 328.48663685 -16.1171875 326.71484375 C-16.8805542 326.27164795 -17.6439209 325.82845215 -18.43041992 325.37182617 C-19.23713135 324.89849854 -20.04384277 324.4251709 -20.875 323.9375 C-21.72360596 323.44290283 -22.57221191 322.94830566 -23.4465332 322.4387207 C-27.22176999 320.23321566 -30.9886352 318.01438109 -34.73828125 315.765625 C-35.2748757 315.44441897 -35.81147016 315.12321295 -36.36432505 314.7922734 C-38.10199962 313.73930992 -39.82130383 312.65620612 -41.5394516 311.57167244 C-44.89549211 309.53986111 -48.32595871 307.93743592 -51.9171524 306.36178398 C-67.90550605 298.93463691 -67.90550605 298.93463691 -71.37592888 292.41523218 C-73.51488663 285.05488991 -73.01061778 277.489531 -72.72460938 269.91064453 C-72.71783047 267.38645071 -72.72165759 264.86220965 -72.73522949 262.33804321 C-72.740674 256.92497451 -72.67325301 251.52084877 -72.53752136 246.10962296 C-72.34146527 238.28829501 -72.27987485 230.47031214 -72.24980956 222.64679383 C-72.19743026 209.95222981 -72.03814188 197.26139135 -71.81054688 184.56884766 C-71.58984957 172.2480723 -71.42017356 159.92831296 -71.31835938 147.60595703 C-71.31205401 146.84496429 -71.30574865 146.08397155 -71.29925221 145.29991843 C-71.26792865 141.48179142 -71.2376003 137.66365727 -71.20776653 133.84551835 C-70.95942913 102.22763714 -70.53534838 70.61438712 -70 39 C-66.62360677 37.06742054 -63.24666624 35.13579938 -59.86962891 33.2043457 C-58.91758072 32.65939705 -57.96553253 32.11444839 -56.9846344 31.55298615 C-50.81853756 28.02714927 -44.63001947 24.55346511 -38.375 21.1875 C-29.59409557 16.42988777 -20.85220674 11.60514728 -12.125 6.75 C-11.51630066 6.41140961 -10.90760132 6.07281921 -10.28045654 5.72396851 C-6.85298549 3.81714913 -3.42619304 1.90911467 0 0 Z " fill="#078BF7" transform="translate(465,281)"/>
<path d="M0 0 C0.83112305 0.42522949 1.66224609 0.85045898 2.51855469 1.28857422 C3.70324341 1.86768555 3.70324341 1.86768555 4.91186523 2.45849609 C5.73468994 2.88710937 6.55751465 3.31572266 7.40527344 3.75732422 C8.3344458 4.24088379 9.26361816 4.72444336 10.22094727 5.22265625 C11.20603271 5.73940918 12.19111816 6.25616211 13.20605469 6.78857422 C14.23045654 7.32466309 15.2548584 7.86075195 16.31030273 8.41308594 C24.73005244 12.83749966 33.05936803 17.40840171 41.34912109 22.07080078 C45.06492188 24.15660028 48.79240067 26.22134641 52.51855469 28.28857422 C54.03293881 29.12960986 55.54726194 29.97075533 57.06152344 30.81201172 C57.8057959 31.22547852 58.55006836 31.63894531 59.31689453 32.06494141 C61.42229992 33.235078 63.52715949 34.40618962 65.63183594 35.57763672 C72.72197749 39.52233366 79.8180219 43.45596623 86.92480469 47.37060547 C87.8991169 47.90744965 87.8991169 47.90744965 88.89311218 48.45513916 C92.15536874 50.25255977 95.41816882 52.04898066 98.68188477 53.84375 C99.89438909 54.51151858 101.10687368 55.179323 102.31933594 55.84716797 C103.39352783 56.43812256 104.46771973 57.02907715 105.57446289 57.63793945 C107.03178833 58.45500366 107.03178833 58.45500366 108.51855469 59.28857422 C109.39256927 59.68563568 110.26658386 60.08269714 111.16708374 60.49179077 C113.51855469 62.28857422 113.51855469 62.28857422 114.11982727 65.154953 C114.10317268 66.90368462 114.10317268 66.90368462 114.08618164 68.68774414 C114.08727684 69.65400475 114.08727684 69.65400475 114.08839417 70.63978577 C114.0849131 72.76706441 114.04603552 74.89214749 114.00683594 77.01904297 C113.99750946 78.49447941 113.99039256 79.96993134 113.98539734 81.44538879 C113.96631393 85.32724828 113.9172034 89.20817106 113.86187744 93.08966064 C113.81071281 97.05101855 113.78788937 101.01252795 113.76269531 104.97412109 C113.70908437 112.74603234 113.62375739 120.51717199 113.51855469 128.28857422 C109.44202544 126.96713976 105.78505066 125.50318166 102.01855469 123.45263672 C100.97828125 122.88931641 99.93800781 122.32599609 98.86621094 121.74560547 C97.76148438 121.14103516 96.65675781 120.53646484 95.51855469 119.91357422 C94.36226562 119.28580078 93.20597656 118.65802734 92.01464844 118.01123047 C88.51265543 116.10968437 85.01541968 114.19953422 81.51855469 112.28857422 C79.62279685 111.25458163 77.7269691 110.22071719 75.83105469 109.18701172 C73.16889621 107.73494736 70.5070669 106.28229508 67.84619141 104.82788086 C59.70544708 100.3806088 51.53805672 95.9834881 43.3684082 91.58959961 C35.72549673 87.47847998 28.087833 83.35782661 20.45605469 79.22607422 C19.48748535 78.70215088 18.51891602 78.17822754 17.52099609 77.63842773 C16.60108887 77.14012451 15.68118164 76.64182129 14.73339844 76.12841797 C13.4144458 75.42048096 13.4144458 75.42048096 12.06884766 74.69824219 C10.37427458 73.76157122 8.70041798 72.7863629 7.05029297 71.7734375 C2.60648842 69.06127666 2.60648842 69.06127666 -2.42675781 68.13232422 C-7.02715358 69.8736505 -11.1364114 72.27787759 -15.35644531 74.78857422 C-17.25327828 75.89586333 -19.15041607 77.00263042 -21.04785156 78.10888672 C-21.97742676 78.65448242 -22.90700195 79.20007813 -23.86474609 79.76220703 C-27.31604957 81.77541372 -30.80157325 83.72285471 -34.29394531 85.66357422 C-40.88652336 89.3481862 -47.40380866 93.15654988 -53.91894531 96.97607422 C-63.24000891 102.43874709 -72.63019998 107.76188651 -82.07543945 113.0065918 C-87.51652435 116.03703151 -92.9215509 119.11656245 -98.28613281 122.28076172 C-99.93838867 123.25529297 -99.93838867 123.25529297 -101.62402344 124.24951172 C-103.73820982 125.50141665 -105.84904235 126.75900735 -107.95605469 128.02294922 C-108.90029297 128.58240234 -109.84453125 129.14185547 -110.81738281 129.71826172 C-111.64802246 130.21567871 -112.47866211 130.7130957 -113.33447266 131.22558594 C-115.48144531 132.28857422 -115.48144531 132.28857422 -118.48144531 132.28857422 C-118.48144531 110.17857422 -118.48144531 88.06857422 -118.48144531 65.28857422 C-109.57144531 60.33857422 -109.57144531 60.33857422 -100.48144531 55.28857422 C-97.36919369 53.5081314 -94.26329036 51.72390652 -91.16894531 49.91357422 C-89.5741761 48.98600437 -87.97911288 48.05893987 -86.38378906 47.13232422 C-85.58054199 46.66568359 -84.77729492 46.19904297 -83.94970703 45.71826172 C-71.21335384 38.34100314 -58.39735109 31.10171393 -45.58056641 23.86547852 C-40.49965879 20.99638728 -35.42228296 18.12169503 -30.35644531 15.22607422 C-28.77669922 14.33082031 -28.77669922 14.33082031 -27.16503906 13.41748047 C-24.1278054 11.681298 -21.13552218 9.87564865 -18.14160156 8.06591797 C-16.234063 6.93178064 -14.32651091 5.79766607 -12.41894531 4.66357422 C-11.51321777 4.10532959 -10.60749023 3.54708496 -9.67431641 2.97192383 C-8.81531738 2.46540283 -7.95631836 1.95888184 -7.07128906 1.43701172 C-6.30679443 0.97472168 -5.5422998 0.51243164 -4.75463867 0.03613281 C-2.48144531 -0.71142578 -2.48144531 -0.71142578 0 0 Z " fill="#13ABF7" transform="translate(513.4814453125,162.71142578125)"/>
<path d="M0 0 C0 76.23 0 152.46 0 231 C-4.50472429 229.49842524 -7.749329 228.17588663 -11.76171875 225.8671875 C-12.86854004 225.23304932 -13.97536133 224.59891113 -15.11572266 223.94555664 C-16.30644064 223.25558769 -17.49703012 222.56539694 -18.6875 221.875 C-19.9195964 221.16565155 -21.15185811 220.45659015 -22.38427734 219.74780273 C-34.5706825 212.7241939 -46.66521481 205.54380948 -58.73876953 198.32836914 C-60.13439005 197.50850613 -61.5522619 196.72386905 -63 196 C-63.39758615 175.18171448 -63.69712147 154.36405688 -63.88080692 133.54274178 C-63.96837468 123.87420687 -64.08768465 114.20803394 -64.2824707 104.54101562 C-64.45222233 96.11239118 -64.5616566 87.68547704 -64.59950441 79.25519073 C-64.62162465 74.79258709 -64.67335201 70.3348746 -64.79741096 65.87384415 C-65.52372737 38.72895242 -65.52372737 38.72895242 -61.34621048 32.55643082 C-57.42842888 28.91409775 -53.14830016 27.06566801 -48.0478754 25.62887096 C-45.11155313 24.72717166 -42.64611811 23.21278628 -40.046875 21.6015625 C-38.28213095 20.60780895 -36.51651015 19.61561069 -34.75 18.625 C-28.79562119 15.27777443 -22.84813094 11.92117317 -16.93359375 8.50390625 C-15.96776367 7.94687012 -15.00193359 7.38983398 -14.00683594 6.81591797 C-12.16040426 5.74943899 -10.315922 4.67957608 -8.47363281 3.60595703 C-7.65088867 3.1314209 -6.82814453 2.65688477 -5.98046875 2.16796875 C-5.25754639 1.74797607 -4.53462402 1.3279834 -3.78979492 0.89526367 C-2 0 -2 0 0 0 Z " fill="#0061F7" transform="translate(375,332)"/>
<path d="M0 0 C10.828125 -0.061875 21.65625 -0.12375 32.8125 -0.1875 C36.21022705 -0.21481201 39.6079541 -0.24212402 43.10864258 -0.27026367 C45.8289352 -0.27903295 48.54923178 -0.28667584 51.26953125 -0.29296875 C51.96141037 -0.30080887 52.65328949 -0.30864899 53.36613464 -0.31672668 C65.83607602 -0.45075988 76.86593959 0.25156448 86.3125 9.1875 C89.33476872 14.22461454 89.3247188 19.0516872 88.375 24.75 C86.7742134 28.53367742 85.24890949 30.48947903 82 33 C78.6875 33.8125 78.6875 33.8125 76 34 C76 34.66 76 35.32 76 36 C76.99 36.020625 77.98 36.04125 79 36.0625 C84.09437305 36.7798709 87.83834835 40.08263649 91 44 C92.66100073 49.65835413 93.11920805 56.42582149 90.75 61.875 C87.21756315 66.1643876 84.27391324 68.60424906 79.0625 70.6875 C78.04285156 71.10386719 77.02320313 71.52023437 75.97265625 71.94921875 C70.95891705 73.72148662 66.50272175 74.12338167 61.19018555 74.11352539 C60.51555425 74.11364593 59.84092295 74.11376646 59.14584827 74.11389065 C56.97610413 74.11314812 54.80644739 74.10555015 52.63671875 74.09765625 C51.29154502 74.09618478 49.94637071 74.09516533 48.60119629 74.09460449 C43.62995542 74.08937533 38.65872684 74.07541406 33.6875 74.0625 C22.570625 74.041875 11.45375 74.02125 0 74 C0 49.58 0 25.16 0 0 Z " fill="#F8F7F7" transform="translate(693,697)"/>
<path d="M0 0 C24 0 24 0 30.94726562 4.22265625 C32.85939442 6.13855617 34.63199674 8.03352692 36.40625 10.0625 C37.39784923 11.09905364 38.39502279 12.13029974 39.39733887 13.15649414 C41.97974747 15.82912278 44.48177795 18.5653343 46.97180176 21.32385254 C49.99604583 24.64088228 53.11614978 27.86778426 56.21957397 31.11050415 C60.88856925 36.00970775 65.4243474 41.00555886 70 46 C70.33 30.82 70.66 15.64 71 0 C78.59 0 86.18 0 94 0 C94 24.42 94 48.84 94 74 C70 74 70 74 62.9609375 69.68554688 C61.00724171 67.72808012 59.19128228 65.78946087 57.375 63.71875 C56.36097581 62.65977622 55.34138382 61.60610941 54.31665039 60.55749512 C51.67516461 57.82575593 49.11386801 55.03023166 46.56463623 52.21258545 C43.4693812 48.82464861 40.27842963 45.52681274 37.10411072 42.21318054 C32.32738324 37.20618555 27.68342742 32.10214444 23 27 C22.67 42.51 22.34 58.02 22 74 C14.74 74 7.48 74 0 74 C0 49.58 0 25.16 0 0 Z " fill="#F9F8F9" transform="translate(281,697)"/>
<path d="M0 0 C0 21.78 0 43.56 0 66 C-8.25 70.62 -16.5 75.24 -25 80 C-40.90112577 89.00236435 -40.90112577 89.00236435 -56.56103516 98.41137695 C-60.7870366 101 -60.7870366 101 -63 101 C-63.20884949 92.49857851 -63.36859675 83.99823405 -63.46630955 75.49487877 C-63.51321686 71.54595508 -63.57679045 67.59879017 -63.67895508 63.65087891 C-63.77699952 59.83817006 -63.83060624 56.0271483 -63.85389519 52.21327591 C-63.87048204 50.76101742 -63.90287767 49.30884797 -63.95157051 47.85731125 C-64.31655424 36.5227278 -64.31655424 36.5227278 -61.14907837 32.85922241 C-58.83050259 31.28147389 -56.56802385 30.11779444 -54 29 C-52.95489258 28.38366699 -51.90978516 27.76733398 -50.83300781 27.13232422 C-49.88264648 26.6117041 -48.93228516 26.09108398 -47.953125 25.5546875 C-46.87039307 24.95809326 -45.78766113 24.36149902 -44.67211914 23.74682617 C-43.54281982 23.12912354 -42.41352051 22.5114209 -41.25 21.875 C-38.85684939 20.55820411 -36.46541733 19.23830542 -34.07421875 17.91796875 C-33.18113258 17.4253933 -33.18113258 17.4253933 -32.27000427 16.92286682 C-25.62046696 13.2493724 -19.03033158 9.47378323 -12.44824219 5.68115234 C-11.65192383 5.22305176 -10.85560547 4.76495117 -10.03515625 4.29296875 C-9.00467163 3.69778442 -9.00467163 3.69778442 -7.95336914 3.09057617 C-2.41773002 0 -2.41773002 0 0 0 Z " fill="#016DF6" transform="translate(375,242)"/>
<path d="M0 0 C7.26 0 14.52 0 22 0 C22 9.24 22 18.48 22 28 C36.85 28 51.7 28 67 28 C67 18.76 67 9.52 67 0 C74.59 0 82.18 0 90 0 C90 24.42 90 48.84 90 74 C82.41 74 74.82 74 67 74 C67 63.77 67 53.54 67 43 C52.15 43 37.3 43 22 43 C22 52.9 22 62.8 22 73 C14.74 73 7.48 73 0 73 C0 48.91 0 24.82 0 0 Z " fill="#FAFAFA" transform="translate(471,697)"/>
<path d="M0 0 C7.26 0 14.52 0 22 0 C22.03738281 3.33480469 22.07476563 6.66960938 22.11328125 10.10546875 C22.15950637 13.3390149 22.21073655 16.57244574 22.26245117 19.8059082 C22.29568351 22.0512795 22.32372069 24.296734 22.34643555 26.54223633 C22.38001202 29.77200743 22.43233073 33.00101727 22.48828125 36.23046875 C22.49467117 37.23272995 22.5010611 38.23499115 22.50764465 39.2676239 C22.61544709 44.39028252 22.81542169 47.76572367 26 52 C26 52.66 26 53.32 26 54 C35.77647938 57.86458479 46.72714755 58.91721009 56.75 55.3125 C60.48691178 53.56488951 62.47502502 51.96493494 64 48 C64.92923977 45.21228069 65.14867338 43.41765752 65.20532227 40.52856445 C65.22526749 39.62785721 65.24521271 38.72714996 65.26576233 37.79914856 C65.28247482 36.83031235 65.29918732 35.86147614 65.31640625 34.86328125 C65.3475779 33.37141548 65.3475779 33.37141548 65.37937927 31.84941101 C65.44479412 28.67051133 65.5037224 25.49152866 65.5625 22.3125 C65.60569288 20.15819452 65.64930742 18.00389746 65.69335938 15.84960938 C65.80126123 10.56649009 65.90039491 5.28330833 66 0 C73.59 0 81.18 0 89 0 C89.0691342 6.79563544 89.12879054 13.59003438 89.16479492 20.38574219 C89.17981541 22.69405265 89.20023779 25.00233488 89.22631836 27.31054688 C89.26299885 30.64199825 89.27979431 33.97306995 89.29296875 37.3046875 C89.30845261 38.32488983 89.32393646 39.34509216 89.33988953 40.39620972 C89.34213157 50.09550775 87.73911979 58.20918222 80.875 65.31640625 C70.91828507 74.25670653 58.01441457 74.49228096 45.33862305 74.39111328 C42.93806349 74.37500378 40.5391811 74.39104821 38.13867188 74.41015625 C25.73851363 74.42829077 15.94469409 73.0126983 6 65 C-0.66597314 58.16310448 -0.27617195 50.61151404 -0.1953125 41.6015625 C-0.1924826 40.41146576 -0.18965271 39.22136902 -0.18673706 37.99520874 C-0.17556817 34.20503563 -0.15046917 30.41510134 -0.125 26.625 C-0.11496597 24.05078467 -0.10584085 21.47656562 -0.09765625 18.90234375 C-0.07563954 12.60147089 -0.04113191 6.3007759 0 0 Z " fill="#F9F9F9" transform="translate(583,697)"/>
<path d="M0 0 C7.26 0 14.52 0 22 0 C22.09924142 7.38318 22.17164627 14.76596744 22.21972656 22.1496582 C22.23978062 24.65884164 22.26703085 27.16797869 22.30175781 29.67700195 C22.35054754 33.29389933 22.37303182 36.9101761 22.390625 40.52734375 C22.41127014 41.64020248 22.43191528 42.75306122 22.45318604 43.89964294 C22.45552815 52.12020616 20.93758434 58.19842027 15.875 64.75 C8.17585076 70.77542115 -0.58511075 74.27615611 -10.3671875 74.1953125 C-11.04677521 74.1924826 -11.72636292 74.18965271 -12.42654419 74.18673706 C-14.57621608 74.17562964 -16.72545614 74.15054391 -18.875 74.125 C-20.34113977 74.11495795 -21.80728614 74.10583425 -23.2734375 74.09765625 C-26.84925458 74.07743104 -30.42414954 74.03826713 -34 74 C-34 68.39 -34 62.78 -34 57 C-31.99099609 57.05220703 -31.99099609 57.05220703 -29.94140625 57.10546875 C-28.14845016 57.13363036 -26.35548035 57.16092796 -24.5625 57.1875 C-23.68400391 57.21263672 -22.80550781 57.23777344 -21.90039062 57.26367188 C-15.35414556 57.33613953 -8.68678696 56.82037338 -3.31079102 52.70776367 C-0.78823096 49.42124708 -0.87217507 45.22850703 -0.79467773 41.2097168 C-0.77473251 40.28913986 -0.75478729 39.36856293 -0.73423767 38.42008972 C-0.70916893 36.94950859 -0.70916893 36.94950859 -0.68359375 35.44921875 C-0.66281265 34.43527542 -0.64203156 33.42133209 -0.62062073 32.37666321 C-0.55538886 29.14700915 -0.49636298 25.91727579 -0.4375 22.6875 C-0.39428971 20.49413252 -0.35067462 18.30077297 -0.30664062 16.10742188 C-0.19897501 10.73836126 -0.09970533 5.36923794 0 0 Z " fill="#FAF9F9" transform="translate(425,697)"/>
<path d="M0 0 C7.59 0 15.18 0 23 0 C23 24.42 23 48.84 23 74 C15.41 74 7.82 74 0 74 C0 49.58 0 25.16 0 0 Z " fill="#F5F4F5" transform="translate(235,697)"/>
<path d="M0 0 C5.30188966 -0.07438973 10.60347268 -0.12871511 15.90576172 -0.16479492 C17.70789892 -0.1798424 19.50999973 -0.2002853 21.31201172 -0.22631836 C23.90862021 -0.26288021 26.50474275 -0.27976681 29.1015625 -0.29296875 C30.30191635 -0.31619453 30.30191635 -0.31619453 31.52651978 -0.33988953 C36.44242796 -0.34135455 39.70185919 0.3518663 44 3 C45 4 45 4 45.25 7.375 C45 11 45 11 43.625 12.875 C39.642159 15.63235146 35.73114473 15.12557174 31.0546875 15.09765625 C30.1696756 15.0962413 29.2846637 15.09482635 28.37283325 15.09336853 C25.54018809 15.0877614 22.70762136 15.07520771 19.875 15.0625 C17.95703239 15.05748592 16.03906354 15.05292285 14.12109375 15.04882812 C9.41403218 15.03778966 4.7070294 15.02052025 0 15 C0 10.05 0 5.1 0 0 Z " fill="#0E0E0E" transform="translate(716,740)"/>
<path d="M0 0 C5.03536777 -0.07432418 10.07041408 -0.12868401 15.10620117 -0.16479492 C16.81817184 -0.1798534 18.53010411 -0.20030455 20.24194336 -0.22631836 C22.70696505 -0.2628319 25.17147535 -0.27975562 27.63671875 -0.29296875 C28.77919319 -0.31619453 28.77919319 -0.31619453 29.94474792 -0.33988953 C34.50061785 -0.34132258 37.34850034 0.23569894 41 3 C41.495 3.495 41.495 3.495 42 4 C41.9375 7.375 41.9375 7.375 41 11 C36.37515047 14.10616934 32.1676402 14.40699452 26.7578125 14.29296875 C25.98944061 14.28872391 25.22106873 14.28447906 24.42941284 14.28010559 C21.99424015 14.26341826 19.5599192 14.22578641 17.125 14.1875 C15.46615785 14.17244023 13.80730263 14.15875409 12.1484375 14.14648438 C8.0986341 14.11354759 4.04946106 14.06183594 0 14 C0 9.38 0 4.76 0 0 Z " fill="#0C0C0D" transform="translate(716,712)"/>
<path d="M0 0 C0.66 0 1.32 0 2 0 C2 21.78 2 43.56 2 66 C0.68 65.67 -0.64 65.34 -2 65 C-1.67468292 64.46485779 -1.34936584 63.92971558 -1.01419067 63.37835693 C0.24902098 60.41602621 0.24035287 58.16539419 0.22705078 54.94628906 C0.22689972 53.72532532 0.22674866 52.50436157 0.22659302 51.24639893 C0.21627045 49.93274353 0.20594788 48.61908813 0.1953125 47.265625 C0.19158042 45.90370898 0.18873437 44.54179027 0.18673706 43.17987061 C0.17911594 39.60252414 0.15948069 36.02534115 0.1373291 32.44805908 C0.11683778 28.7948223 0.10772833 25.14155899 0.09765625 21.48828125 C0.07623322 14.32544647 0.04211582 7.16274617 0 0 Z " fill="#1AD0F0" transform="translate(625,225)"/>
<path d="M0 0 C0.66 0.33 1.32 0.66 2 1 C1.0409375 1.7734375 1.0409375 1.7734375 0.0625 2.5625 C-4.39822678 7.83426802 -3.14624952 16.3534947 -3.1328125 22.9375 C-3.13376923 23.97640381 -3.13472595 25.01530762 -3.13571167 26.08569336 C-3.13638979 28.27425192 -3.13456126 30.46281253 -3.13037109 32.65136719 C-3.12501768 35.98897853 -3.13032863 39.32645531 -3.13671875 42.6640625 C-3.1360579 44.7968753 -3.13477661 46.92968801 -3.1328125 49.0625 C-3.13483673 50.05435303 -3.13686096 51.04620605 -3.13894653 52.06811523 C-3.1218527 57.15410452 -2.87510119 61.98750383 -2 67 C-1.38511719 66.62746094 -0.77023437 66.25492187 -0.13671875 65.87109375 C0.67152344 65.39800781 1.47976563 64.92492187 2.3125 64.4375 C3.11300781 63.96183594 3.91351563 63.48617187 4.73828125 62.99609375 C7 62 7 62 10 63 C8.06730041 64.17460192 6.12866687 65.33944472 4.1875 66.5 C2.56908203 67.47453125 2.56908203 67.47453125 0.91796875 68.46875 C-2 70 -2 70 -5 70 C-5.11578527 61.3162096 -5.2046592 52.63268434 -5.25906086 43.94829082 C-5.28516951 39.91585235 -5.32058908 35.88394144 -5.37719727 31.85180664 C-5.43147429 27.96142702 -5.46141098 24.07155517 -5.47438622 20.18082619 C-5.48363409 18.69557511 -5.50169341 17.21035223 -5.52865028 15.725317 C-5.56488769 13.64658676 -5.56994822 11.56996141 -5.56762695 9.4909668 C-5.57873001 8.30738083 -5.58983307 7.12379486 -5.60127258 5.90434265 C-5 3 -5 3 -2.58952332 1.03181458 C-1.30770927 0.52106636 -1.30770927 0.52106636 0 0 Z " fill="#0577E7" transform="translate(400,225)"/>
<path d="M0 0 C0.66 0.33 1.32 0.66 2 1 C1.01 2.485 1.01 2.485 0 4 C-0.29194243 7.1363212 -0.29194243 7.1363212 -0.22705078 10.76635742 C-0.22734283 11.44954544 -0.22763489 12.13273346 -0.22793579 12.83662415 C-0.22654332 15.09303523 -0.21098629 17.34911541 -0.1953125 19.60546875 C-0.19158207 21.17059651 -0.18873524 22.73572661 -0.18673706 24.30085754 C-0.17910294 28.41908218 -0.1594564 32.53716561 -0.1373291 36.65533447 C-0.11686589 40.85809418 -0.10773433 45.06087671 -0.09765625 49.26367188 C-0.07621026 57.50917936 -0.04207703 65.75457211 0 74 C2.31 75.32 4.62 76.64 7 78 C7 78.66 7 79.32 7 80 C3.53611847 78.74915389 0.61109832 77.63236602 -2 75 C-2.48101807 71.82991028 -2.48101807 71.82991028 -2.45410156 67.86645508 C-2.45468567 67.14425278 -2.45526978 66.42205048 -2.45587158 65.67796326 C-2.45308527 63.29132991 -2.42196973 60.90594631 -2.390625 58.51953125 C-2.3831645 56.8647276 -2.37747067 55.20991512 -2.37347412 53.55509949 C-2.3582026 49.19995728 -2.31890814 44.84534882 -2.2746582 40.49041748 C-2.23373797 36.04641948 -2.21547008 31.60233522 -2.1953125 27.15820312 C-2.15241496 18.43855716 -2.08414579 9.71934498 -2 1 C-1.34 0.67 -0.68 0.34 0 0 Z " fill="#037BEA" transform="translate(489,555)"/>
<path d="M0 0 C0.66 0.33 1.32 0.66 2 1 C1.0409375 1.7734375 1.0409375 1.7734375 0.0625 2.5625 C-2.55791681 5.65935623 -2.69389817 8.02067623 -3 12 C-3.33 12 -3.66 12 -4 12 C-4.22893297 8.96663814 -4.36475845 6.02534949 -4 3 C-2 0.9375 -2 0.9375 0 0 Z " fill="#0889EE" transform="translate(400,225)"/>
</svg>
